# This file uses centimeters as units for non-parametric coordinates.

mtllib RockLP.mtl
g default
v -9.127795 5.463243 2.525715
v -3.810521 5.997090 7.749608
v -4.552587 0.350784 6.240810
v -9.331164 5.519263 -2.018221
v -7.038999 1.510087 5.223146
v -5.584013 11.661364 -0.210343
v 8.400150 5.380104 -8.710319
v -6.848453 7.484479 -8.180107
v 8.390129 3.897433 6.064552
v 2.628904 9.528084 5.586577
v 5.640048 4.223526 7.606931
v 8.346121 2.530362 4.710023
v 0.090752 12.153560 2.403251
v 3.590741 5.284509 8.659369
v 6.049398 9.094266 3.208534
v 6.499669 0.544623 -4.597913
v -7.115510 10.355889 1.166558
v 4.382748 -1.723787 -0.959690
v 2.214232 -0.473726 -4.096918
v 6.391135 11.163992 -3.643830
v -5.547224 11.044572 -5.552226
v 8.241044 8.107849 2.429818
v 5.085425 -1.337467 0.510377
v -2.379931 4.640743 8.280145
v 3.892183 7.083002 -11.065823
v -1.312637 5.019913 -11.439328
v 4.254792 0.115224 -7.934053
v 2.886638 10.493665 -4.893608
v -5.958847 5.091287 -9.362256
v -1.176471 10.447234 -8.616321
v -4.102223 -0.550715 4.663528
v 4.148583 3.068117 -11.536369
v 8.036223 1.235373 -2.450132
v -1.273540 10.986778 -5.905807
v 9.366883 5.279233 -7.205547
v 8.882541 7.454746 -2.310864
v 6.193460 11.531364 -1.097096
v 5.406530 9.719451 -8.457705
v -6.338824 0.060616 4.145209
v -1.578586 12.748381 0.289324
v -2.166920 12.429770 6.814316
v -0.541662 8.568851 8.669178
v -4.152975 12.684984 5.056401
v 9.374060 3.737510 3.584702
v -3.479339 -0.557914 -5.550093
v -0.721215 -0.304953 -7.758232
v -7.207157 9.647115 4.204130
v -3.043745 7.941356 8.956468
v -9.592710 5.669590 0.842133
v 2.353300 11.803264 2.461959
v -7.060299 2.848514 -4.862136
v 6.787642 2.370203 -9.626968
v 3.399398 1.481696 4.892348
vn -0.702227 0.037142 0.710984
vn -0.702227 0.037142 0.710984
vn -0.702227 0.037142 0.710984
vn 0.645387 -0.569077 0.509536
vn 0.645387 -0.569077 0.509536
vn 0.645387 -0.569077 0.509536
vn 0.003118 0.981468 -0.191601
vn 0.003118 0.981468 -0.191601
vn 0.003118 0.981468 -0.191601
vn 0.802439 -0.267435 -0.533451
vn 0.802439 -0.267435 -0.533451
vn 0.802439 -0.267435 -0.533451
vn -0.876194 0.470418 -0.104841
vn -0.876194 0.470418 -0.104841
vn -0.876194 0.470418 -0.104841
vn -0.844408 0.504832 -0.179217
vn -0.844408 0.504832 -0.179217
vn -0.844408 0.504832 -0.179218
vn -0.527001 -0.656203 0.540063
vn -0.527001 -0.656203 0.540063
vn -0.527001 -0.656203 0.540063
vn -0.702185 0.109069 0.703591
vn -0.702185 0.109069 0.703591
vn -0.702185 0.109069 0.703591
vn -0.387045 0.288691 -0.875702
vn -0.387045 0.288691 -0.875702
vn -0.387045 0.288691 -0.875702
vn -0.883483 0.461406 0.081007
vn -0.883483 0.461406 0.081007
vn -0.883483 0.461406 0.081007
vn -0.383322 0.635108 -0.670599
vn -0.383322 0.635108 -0.670599
vn -0.383322 0.635108 -0.670599
vn -0.738907 0.637882 -0.217078
vn -0.738907 0.637882 -0.217078
vn -0.738907 0.637882 -0.217078
vn 0.770229 0.550146 -0.322626
vn 0.770229 0.550146 -0.322626
vn 0.770229 0.550146 -0.322626
vn -0.039621 -0.208221 0.977279
vn -0.039621 -0.208221 0.977279
vn -0.039621 -0.208221 0.977279
vn -0.119417 0.460510 -0.879585
vn -0.119417 0.460510 -0.879585
vn -0.119417 0.460510 -0.879585
vn -0.561538 0.443188 0.698756
vn -0.561538 0.443188 0.698756
vn -0.561538 0.443188 0.698756
vn 0.003946 0.993395 -0.114674
vn 0.003946 0.993395 -0.114674
vn 0.003946 0.993395 -0.114674
vn -0.298045 0.446358 -0.843762
vn -0.298045 0.446358 -0.843762
vn -0.298045 0.446358 -0.843762
vn 0.957712 0.272610 0.092039
vn 0.957712 0.272610 0.092039
vn 0.957712 0.272610 0.092039
vn -0.712061 0.699761 0.057474
vn -0.712061 0.699761 0.057474
vn -0.712061 0.699761 0.057474
vn -0.604222 0.416971 0.679008
vn -0.604222 0.416971 0.679008
vn -0.604222 0.416971 0.679008
vn 0.024501 0.117912 -0.992722
vn 0.024501 0.117912 -0.992722
vn 0.024501 0.117912 -0.992722
vn -0.765276 -0.093518 0.636873
vn -0.765276 -0.093518 0.636873
vn -0.765276 -0.093518 0.636873
vn -0.696304 -0.699517 -0.160737
vn -0.696304 -0.699517 -0.160737
vn -0.696304 -0.699517 -0.160737
vn -0.657072 -0.598062 -0.458888
vn -0.657072 -0.598062 -0.458888
vn -0.657072 -0.598062 -0.458888
vn -0.260350 -0.965395 -0.015197
vn -0.260350 -0.965395 -0.015197
vn -0.260350 -0.965395 -0.015197
vn 0.589052 0.557266 0.585210
vn 0.589053 0.557266 0.585210
vn 0.589052 0.557266 0.585210
vn 0.467000 0.585606 0.662553
vn 0.467000 0.585606 0.662553
vn 0.467000 0.585606 0.662553
vn 0.603609 0.130725 -0.786490
vn 0.603609 0.130725 -0.786490
vn 0.603609 0.130725 -0.786490
vn 0.468391 0.018082 -0.883336
vn 0.468391 0.018082 -0.883336
vn 0.468391 0.018082 -0.883336
vn 0.137487 -0.596491 0.790757
vn 0.137487 -0.596491 0.790757
vn 0.137487 -0.596491 0.790757
vn 0.513575 0.579222 0.633042
vn 0.513575 0.579222 0.633042
vn 0.513575 0.579222 0.633042
vn 0.443101 0.742855 0.501824
vn 0.443101 0.742855 0.501824
vn 0.443101 0.742855 0.501824
vn -0.879117 -0.472285 0.064036
vn -0.879117 -0.472285 0.064036
vn -0.879117 -0.472285 0.064036
vn -0.916375 -0.339960 0.211386
vn -0.916375 -0.339960 0.211386
vn -0.916375 -0.339960 0.211386
vn 0.021826 -0.712350 0.701485
vn 0.021826 -0.712350 0.701485
vn 0.021826 -0.712350 0.701485
vn 0.184673 -0.763548 0.618781
vn 0.184673 -0.763548 0.618781
vn 0.184673 -0.763548 0.618781
vn 0.297426 -0.676802 0.673406
vn 0.297426 -0.676802 0.673407
vn 0.297426 -0.676802 0.673407
vn 0.461262 0.532222 0.709913
vn 0.461262 0.532222 0.709913
vn 0.461262 0.532222 0.709913
vn 0.125580 0.992081 0.002153
vn 0.125580 0.992081 0.002153
vn 0.125580 0.992081 0.002153
vn 0.622936 0.535974 0.569810
vn 0.622936 0.535974 0.569810
vn 0.622936 0.535974 0.569810
vn 0.490033 0.777317 0.394520
vn 0.490033 0.777317 0.394520
vn 0.490033 0.777317 0.394520
vn 0.475138 0.753058 0.455135
vn 0.475138 0.753058 0.455135
vn 0.475138 0.753058 0.455135
vn 0.839402 0.542117 0.038901
vn 0.839402 0.542117 0.038901
vn 0.839402 0.542117 0.038901
vn -0.542629 0.821475 0.175307
vn -0.542629 0.821475 0.175307
vn -0.542629 0.821475 0.175307
vn 0.539394 -0.800953 -0.259864
vn 0.539394 -0.800953 -0.259864
vn 0.539394 -0.800953 -0.259864
vn 0.033276 -0.996804 -0.072628
vn 0.033276 -0.996804 -0.072628
vn 0.033276 -0.996804 -0.072628
vn -0.260807 -0.945211 -0.196354
vn -0.260807 -0.945211 -0.196354
vn -0.260807 -0.945211 -0.196354
vn 0.195898 -0.788672 0.582770
vn 0.195898 -0.788672 0.582770
vn 0.195898 -0.788672 0.582770
vn -0.285513 0.839794 0.461767
vn -0.285513 0.839794 0.461767
vn -0.285513 0.839794 0.461767
vn 0.026446 -0.969858 0.242230
vn 0.026446 -0.969858 0.242230
vn 0.026446 -0.969858 0.242230
vn -0.190315 -0.950132 -0.247041
vn -0.190315 -0.950132 -0.247041
vn -0.190315 -0.950132 -0.247041
vn 0.801646 -0.575179 -0.162890
vn 0.801646 -0.575179 -0.162890
vn 0.801646 -0.575179 -0.162890
vn 0.762834 -0.646586 0.003219
vn 0.762834 -0.646586 0.003219
vn 0.762834 -0.646586 0.003219
vn 0.014381 -0.999895 0.001582
vn 0.014381 -0.999895 0.001582
vn 0.014381 -0.999895 0.001582
vn 0.189145 -0.791087 0.581726
vn 0.189145 -0.791087 0.581726
vn 0.189145 -0.791087 0.581726
vn 0.637990 -0.762926 -0.104462
vn 0.637990 -0.762926 -0.104462
vn 0.637990 -0.762926 -0.104462
vn 0.722298 -0.613368 -0.319477
vn 0.722298 -0.613368 -0.319477
vn 0.722298 -0.613368 -0.319477
vn 0.719735 -0.683143 0.123687
vn 0.719735 -0.683143 0.123687
vn 0.719734 -0.683143 0.123687
vn 0.539543 0.414870 -0.732650
vn 0.539543 0.414870 -0.732650
vn 0.539543 0.414870 -0.732650
vn 0.500470 -0.834833 -0.229312
vn 0.500470 -0.834833 -0.229312
vn 0.500470 -0.834833 -0.229312
vn -0.550856 -0.272436 0.788883
vn -0.550856 -0.272436 0.788883
vn -0.550856 -0.272436 0.788883
vn -0.478446 -0.167463 0.862001
vn -0.478446 -0.167463 0.862001
vn -0.478446 -0.167463 0.862001
vn 0.293109 0.785012 0.545750
vn 0.293109 0.785012 0.545750
vn 0.293109 0.785012 0.545750
vn 0.160413 0.969142 -0.187169
vn 0.160413 0.969142 -0.187169
vn 0.160413 0.969142 -0.187169
vn 0.092092 0.673055 -0.733837
vn 0.092092 0.673055 -0.733837
vn 0.092092 0.673055 -0.733837
vn 0.111889 0.945260 -0.306537
vn 0.111889 0.945260 -0.306537
vn 0.111889 0.945260 -0.306537
vn -0.279604 0.914068 0.293770
vn -0.279604 0.914068 0.293770
vn -0.279604 0.914068 0.293770
vn 0.152570 0.988160 0.016212
vn 0.152570 0.988160 0.016212
vn 0.152570 0.988160 0.016212
vn 0.147044 0.976331 0.158604
vn 0.147044 0.976331 0.158604
vn 0.147044 0.976331 0.158604
vn 0.250211 -0.745144 -0.618187
vn 0.250211 -0.745144 -0.618187
vn 0.250211 -0.745144 -0.618187
vn -0.326468 -0.857773 0.397045
vn -0.326468 -0.857773 0.397045
vn -0.326468 -0.857773 0.397045
vn 0.042786 -0.772047 -0.634124
vn 0.042786 -0.772047 -0.634124
vn 0.042786 -0.772047 -0.634124
vn 0.079787 -0.990764 -0.109639
vn 0.079787 -0.990764 -0.109639
vn 0.079787 -0.990764 -0.109639
vn -0.833459 -0.543203 -0.101370
vn -0.833459 -0.543203 -0.101370
vn -0.833459 -0.543203 -0.101370
vn -0.864148 -0.332880 -0.377411
vn -0.864148 -0.332880 -0.377411
vn -0.864148 -0.332880 -0.377411
vn -0.219361 0.935547 -0.276826
vn -0.219361 0.935547 -0.276826
vn -0.219361 0.935547 -0.276826
vn -0.002897 0.980734 -0.195324
vn -0.002897 0.980734 -0.195324
vn -0.002897 0.980734 -0.195324
vn 0.848807 -0.385660 0.361652
vn 0.848807 -0.385660 0.361652
vn 0.848807 -0.385660 0.361652
vn 0.888125 0.317948 0.331878
vn 0.888125 0.317948 0.331878
vn 0.888125 0.317948 0.331878
vn 0.565077 -0.812562 -0.142936
vn 0.565077 -0.812562 -0.142936
vn 0.565077 -0.812562 -0.142936
vn 0.985654 0.167174 0.023230
vn 0.985654 0.167174 0.023230
vn 0.985654 0.167174 0.023230
vn 0.491679 0.578930 0.650455
vn 0.491679 0.578930 0.650455
vn 0.491679 0.578930 0.650455
vn 0.928293 -0.368023 -0.053201
vn 0.928293 -0.368023 -0.053201
vn 0.928293 -0.368023 -0.053201
vn -0.451159 -0.626748 -0.635329
vn -0.451159 -0.626748 -0.635329
vn -0.451159 -0.626748 -0.635329
vn -0.908874 0.301706 0.287961
vn -0.908874 0.301706 0.287961
vn -0.908874 0.301706 0.287961
vn -0.004621 0.431453 0.902124
vn -0.004621 0.431453 0.902124
vn -0.004621 0.431453 0.902124
vn 0.542464 0.786281 -0.295795
vn 0.542464 0.786281 -0.295795
vn 0.542464 0.786281 -0.295795
vn 0.844481 0.487541 -0.221713
vn 0.844481 0.487541 -0.221713
vn 0.844481 0.487541 -0.221713
vn 0.832559 0.553727 -0.015254
vn 0.832559 0.553727 -0.015254
vn 0.832559 0.553727 -0.015254
vn -0.025117 0.908603 -0.416905
vn -0.025117 0.908603 -0.416905
vn -0.025117 0.908603 -0.416905
vn 0.130396 0.982685 -0.131634
vn 0.130396 0.982685 -0.131634
vn 0.130396 0.982685 -0.131634
vn 0.173225 0.978476 0.112155
vn 0.173225 0.978476 0.112155
vn 0.173225 0.978476 0.112155
vn -0.442315 -0.176822 0.879256
vn -0.442315 -0.176822 0.879256
vn -0.442315 -0.176822 0.879256
vn -0.903432 -0.134787 -0.406993
vn -0.903432 -0.134787 -0.406993
vn -0.903432 -0.134787 -0.406993
vn 0.176051 0.949092 -0.261208
vn 0.176051 0.949092 -0.261208
vn 0.176051 0.949092 -0.261208
vn 0.087014 0.106524 0.990495
vn 0.087014 0.106524 0.990495
vn 0.087014 0.106524 0.990495
vn -0.925689 0.375011 -0.049675
vn -0.925689 0.375011 -0.049675
vn -0.925689 0.375011 -0.049675
vn -0.781221 -0.623054 -0.038689
vn -0.781221 -0.623054 -0.038689
vn -0.781221 -0.623054 -0.038689
vn 0.026416 -0.677817 0.734756
vn 0.026416 -0.677817 0.734756
vn 0.026416 -0.677817 0.734756
vn -0.345464 -0.559301 -0.753550
vn -0.345464 -0.559301 -0.753550
vn -0.345464 -0.559301 -0.753550
vn -0.218213 -0.571231 -0.791251
vn -0.218213 -0.571231 -0.791251
vn -0.218213 -0.571231 -0.791251
s off
g pPlatonic1
usemtl initialShadingGroup
f 2//1 47//2 1//3
f 24//4 3//5 31//6
f 6//7 43//8 13//9
f 52//10 7//11 35//12
f 4//13 49//14 17//15
f 4//16 17//17 8//18
f 39//19 3//20 5//21
f 2//22 1//23 5//24
f 26//25 29//26 8//27
f 49//28 47//29 17//30
f 21//31 30//32 8//33
f 6//34 8//35 17//36
f 7//37 38//38 20//39
f 24//40 14//41 48//42
f 30//43 25//44 26//45
f 43//46 48//47 41//48
f 6//49 34//50 21//51
f 30//52 26//53 8//54
f 36//55 22//56 44//57
f 43//58 6//59 47//60
f 47//61 48//62 43//63
f 25//64 32//65 26//66
f 48//67 47//68 2//69
f 39//70 51//71 45//72
f 51//73 29//74 45//75
f 39//76 45//77 31//78
f 14//79 11//80 10//81
f 42//82 14//83 10//84
f 25//85 52//86 32//87
f 52//88 25//89 7//90
f 53//91 24//92 31//93
f 10//94 9//95 15//96
f 15//97 50//98 10//99
f 5//100 49//101 39//102
f 5//103 1//104 49//105
f 11//106 24//107 53//108
f 53//109 12//110 11//111
f 12//112 9//113 11//114
f 9//115 10//116 11//117
f 43//118 41//119 13//120
f 50//121 41//122 42//123
f 15//124 22//125 50//126
f 50//127 22//128 37//129
f 22//130 36//131 37//132
f 6//133 17//134 47//135
f 52//136 16//137 27//138
f 45//139 46//140 19//141
f 19//142 18//143 31//144
f 31//145 23//146 53//147
f 40//148 6//149 13//150
f 31//151 18//152 23//153
f 18//154 19//155 27//156
f 52//157 35//158 16//159
f 12//160 23//161 44//162
f 19//163 31//164 45//165
f 12//166 53//167 23//168
f 16//169 23//170 18//171
f 33//172 16//173 35//174
f 33//175 44//176 23//177
f 25//178 38//179 7//180
f 27//181 16//182 18//183
f 48//184 2//185 24//186
f 24//187 2//188 3//189
f 10//190 50//191 42//192
f 34//193 28//194 30//195
f 25//196 30//197 38//198
f 20//199 38//200 30//201
f 30//202 28//203 20//204
f 41//205 50//206 13//207
f 13//208 50//209 40//210
f 32//211 52//212 27//213
f 31//214 3//215 39//216
f 46//217 32//218 27//219
f 27//220 19//221 46//222
f 39//223 49//224 51//225
f 29//226 51//227 4//228
f 34//229 6//230 40//231
f 34//232 30//233 21//234
f 12//235 44//236 9//237
f 22//238 9//239 44//240
f 23//241 16//242 33//243
f 44//244 35//245 36//246
f 9//247 22//248 15//249
f 44//250 33//251 35//252
f 29//253 46//254 45//255
f 47//256 49//257 1//258
f 48//259 42//260 41//261
f 7//262 36//263 35//264
f 7//265 20//266 36//267
f 37//268 36//269 20//270
f 20//271 28//272 40//273
f 40//274 37//275 20//276
f 40//277 50//278 37//279
f 3//280 2//281 5//282
f 4//283 8//284 29//285
f 34//286 40//287 28//288
f 14//289 42//290 48//291
f 8//292 6//293 21//294
f 51//295 49//296 4//297
f 11//298 14//299 24//300
f 26//301 46//302 29//303
f 26//304 32//305 46//306
